<svg width="120" height="120" viewBox="0 0 120 120" fill="none" xmlns="http://www.w3.org/2000/svg">
  <defs>
    <linearGradient id="logoBg" x1="0%" y1="0%" x2="100%" y2="100%">
      <stop offset="0%" stopColor="#3B82F6" />
      <stop offset="60%" stopColor="#3B82F6" />
      <stop offset="100%" stopColor="#22D3EE" />
    </linearGradient>
    <filter id="dropShadow" x="-20%" y="-20%" width="140%" height="140%">
      <feDropShadow dx="0" dy="3" stdDeviation="4" floodColor="#000000" floodOpacity="0.35" />
    </filter>
    <filter id="chainShadow" x="-50%" y="-50%" width="200%" height="200%">
      <feDropShadow dx="0.5" dy="0.5" stdDeviation="0.5" floodColor="black" floodOpacity="0.2" />
    </filter>
    <clipPath id="appIconClip">
      <rect x="0" y="0" width="120" height="120" rx="28" />
    </clipPath>
    <linearGradient id="chainGradient" x1="0%" y1="0%" x2="100%" y2="100%">
      <stop offset="0%" stopColor="#BF953F" />
      <stop offset="25%" stopColor="#FCF6BA" />
      <stop offset="50%" stopColor="#B38728" />
      <stop offset="75%" stopColor="#FBF5B7" />
      <stop offset="100%" stopColor="#AA771C" />
    </linearGradient>
    <linearGradient id="textGradient" x1="0%" y1="0%" x2="100%" y2="0%">
      <stop offset="0%" stopColor="#3B82F6" />
      <stop offset="60%" stopColor="#3B82F6" />
      <stop offset="100%" stopColor="#22D3EE" />
    </linearGradient>
  </defs>

  <g clipPath="url(#appIconClip)">
    <rect x="0" y="0" width="120" height="120" rx="28" fill="white" />

    <g transform="translate(60, 42) scale(0.95) translate(-50, -50)">
      <g stroke-width="0.8" fill="none" filter="url(#chainShadow)">
        <ellipse cx="28" cy="28" rx="3" ry="1.2" stroke="url(#chainGradient)" stroke-width="0.8" transform="rotate(45 28 28)" />
        <ellipse cx="29.2" cy="27.2" rx="3" ry="1.2" stroke="url(#chainGradient)" stroke-width="0.8" transform="rotate(-45 29.2 27.2)" />
        <ellipse cx="30.4" cy="26.4" rx="3" ry="1.2" stroke="url(#chainGradient)" stroke-width="0.8" transform="rotate(45 30.4 26.4)" />
        <ellipse cx="31.6" cy="25.6" rx="3" ry="1.2" stroke="url(#chainGradient)" stroke-width="0.8" transform="rotate(-45 31.6 25.6)" />
        <ellipse cx="32.8" cy="24.8" rx="3" ry="1.2" stroke="url(#chainGradient)" stroke-width="0.8" transform="rotate(45 32.8 24.8)" />
        <ellipse cx="34" cy="24" rx="3" ry="1.2" stroke="url(#chainGradient)" stroke-width="0.8" transform="rotate(-45 34 24)" />
        <ellipse cx="35.2" cy="23.2" rx="3" ry="1.2" stroke="url(#chainGradient)" stroke-width="0.8" transform="rotate(45 35.2 23.2)" />
        <ellipse cx="36.4" cy="22.4" rx="3" ry="1.2" stroke="url(#chainGradient)" stroke-width="0.8" transform="rotate(-45 36.4 22.4)" />

        <g><ellipse cx="34" cy="34" rx="3.5" ry="1.5" stroke="url(#chainGradient)" stroke-width="1.2" transform="rotate(-14 34 34)" /><ellipse cx="34" cy="34" rx="2.8" ry="1" stroke="white" stroke-width="0.4" opacity="0.5" transform="rotate(-14 34 34)" /></g>
        <g><ellipse cx="31" cy="35" rx="3.5" ry="1.5" stroke="url(#chainGradient)" stroke-width="1.2" transform="rotate(75 31 35)" /><ellipse cx="31" cy="35" rx="2.8" ry="1" stroke="white" stroke-width="0.4" opacity="0.5" transform="rotate(75 31 35)" /></g>
        <g><ellipse cx="28" cy="36" rx="3.5" ry="1.5" stroke="url(#chainGradient)" stroke-width="1.2" transform="rotate(-14 28 36)" /><ellipse cx="28" cy="36" rx="2.8" ry="1" stroke="white" stroke-width="0.4" opacity="0.5" transform="rotate(-14 28 36)" /></g>
        <g><ellipse cx="25" cy="37" rx="3.5" ry="1.5" stroke="url(#chainGradient)" stroke-width="1.2" transform="rotate(75 25 37)" /><ellipse cx="25" cy="37" rx="2.8" ry="1" stroke="white" stroke-width="0.4" opacity="0.5" transform="rotate(75 25 37)" /></g>
        <g><ellipse cx="22" cy="38" rx="3.5" ry="1.5" stroke="url(#chainGradient)" stroke-width="1.2" transform="rotate(-15 22 38)" /><ellipse cx="22" cy="38" rx="2.8" ry="1" stroke="white" stroke-width="0.4" opacity="0.5" transform="rotate(-15 22 38)" /></g>
        <g><ellipse cx="19" cy="39" rx="3.5" ry="1.5" stroke="url(#chainGradient)" stroke-width="1.2" transform="rotate(74 19 39)" /><ellipse cx="19" cy="39" rx="2.8" ry="1" stroke="white" stroke-width="0.4" opacity="0.5" transform="rotate(74 19 39)" /></g>
        <g><ellipse cx="16" cy="40" rx="3.5" ry="1.5" stroke="url(#chainGradient)" stroke-width="1.2" transform="rotate(-16 16 40)" /><ellipse cx="16" cy="40" rx="2.8" ry="1" stroke="white" stroke-width="0.4" opacity="0.5" transform="rotate(-16 16 40)" /></g>
        <g><ellipse cx="13" cy="40.7" rx="3.5" ry="1.5" stroke="url(#chainGradient)" stroke-width="1.2" transform="rotate(72 13 40.7)" /><ellipse cx="13" cy="40.7" rx="2.8" ry="1" stroke="white" stroke-width="0.4" opacity="0.5" transform="rotate(72 13 40.7)" /></g>
        <g><ellipse cx="10" cy="41.3" rx="3.5" ry="1.5" stroke="url(#chainGradient)" stroke-width="1.2" transform="rotate(-17 10 41.3)" /><ellipse cx="10" cy="41.3" rx="2.8" ry="1" stroke="white" stroke-width="0.4" opacity="0.5" transform="rotate(-17 10 41.3)" /></g>
      </g>

      <path d="M45 15 L20 15 C17.2 15 15 17.2 15 20 L15 45 L55 85 C57.8 87.8 62.2 87.8 65 85 L85 65 C87.8 62.2 87.8 57.8 85 55 L45 15 Z" fill="url(#logoBg)" filter="url(#dropShadow)" />
      <path d="M43.8 18 L20 18 C18.9 18 18 18.9 18 20 L18 43.8 L55 80.8 C57.8 83.6 62.2 83.6 65 80.8 L80.8 65 C83.6 62.2 83.6 57.8 80.8 55 L43.8 18 Z" stroke="#FFFFFF" stroke-width="1.5" fill="none" />
      <circle cx="28" cy="28" r="4.5" fill="white" />

      <g stroke-width="0.8" fill="none" filter="url(#chainShadow)">
        <g><ellipse cx="28" cy="28" rx="3.5" ry="1.5" stroke="url(#chainGradient)" stroke-width="1.2" transform="rotate(-60 28 28)" /><ellipse cx="28" cy="28" rx="2.8" ry="1" stroke="white" stroke-width="0.4" opacity="0.5" transform="rotate(-60 28 28)" /></g>
        <g><ellipse cx="26.6" cy="26.1" rx="3.5" ry="1.5" stroke="url(#chainGradient)" stroke-width="1.2" transform="rotate(30.7 26.6 26.1)" /><ellipse cx="26.6" cy="26.1" rx="2.8" ry="1" stroke="white" stroke-width="0.4" opacity="0.5" transform="rotate(30.7 26.6 26.1)" /></g>
        <g><ellipse cx="25.2" cy="24.2" rx="3.5" ry="1.5" stroke="url(#chainGradient)" stroke-width="1.2" transform="rotate(-58.4 25.2 24.2)" /><ellipse cx="25.2" cy="24.2" rx="2.8" ry="1" stroke="white" stroke-width="0.4" opacity="0.5" transform="rotate(-58.4 25.2 24.2)" /></g>
        <g><ellipse cx="23.6" cy="22.3" rx="3.5" ry="1.5" stroke="url(#chainGradient)" stroke-width="1.2" transform="rotate(32.2 23.6 22.3)" /><ellipse cx="23.6" cy="22.3" rx="2.8" ry="1" stroke="white" stroke-width="0.4" opacity="0.5" transform="rotate(32.2 23.6 22.3)" /></g>
        <g><ellipse cx="22" cy="20.5" rx="3.5" ry="1.5" stroke="url(#chainGradient)" stroke-width="1.2" transform="rotate(-57.1 22 20.5)" /><ellipse cx="22" cy="20.5" rx="2.8" ry="1" stroke="white" stroke-width="0.4" opacity="0.5" transform="rotate(-57.1 22 20.5)" /></g>
        <g><ellipse cx="20.3" cy="18.8" rx="3.5" ry="1.5" stroke="url(#chainGradient)" stroke-width="1.2" transform="rotate(33.3 20.3 18.8)" /><ellipse cx="20.3" cy="18.8" rx="2.8" ry="1" stroke="white" stroke-width="0.4" opacity="0.5" transform="rotate(33.3 20.3 18.8)" /></g>
        <g><ellipse cx="18.5" cy="17.1" rx="3.5" ry="1.5" stroke="url(#chainGradient)" stroke-width="1.2" transform="rotate(-56.2 18.5 17.1)" /><ellipse cx="18.5" cy="17.1" rx="2.8" ry="1" stroke="white" stroke-width="0.4" opacity="0.5" transform="rotate(-56.2 18.5 17.1)" /></g>
        <g><ellipse cx="16.5" cy="15.5" rx="3.5" ry="1.5" stroke="url(#chainGradient)" stroke-width="1.2" transform="rotate(33.9 16.5 15.5)" /><ellipse cx="16.5" cy="15.5" rx="2.8" ry="1" stroke="white" stroke-width="0.4" opacity="0.5" transform="rotate(33.9 16.5 15.5)" /></g>
        <g><ellipse cx="14.4" cy="14" rx="3.5" ry="1.5" stroke="url(#chainGradient)" stroke-width="1.2" transform="rotate(-56 14.4 14)" /><ellipse cx="14.4" cy="14" rx="2.8" ry="1" stroke="white" stroke-width="0.4" opacity="0.5" transform="rotate(-56 14.4 14)" /></g>
        <g><ellipse cx="12" cy="12.5" rx="3.5" ry="1.5" stroke="url(#chainGradient)" stroke-width="1.2" transform="rotate(33.8 12 12.5)" /><ellipse cx="12" cy="12.5" rx="2.8" ry="1" stroke="white" stroke-width="0.4" opacity="0.5" transform="rotate(33.8 12 12.5)" /></g>
        <g><ellipse cx="9.6" cy="11.1" rx="3.5" ry="1.5" stroke="url(#chainGradient)" stroke-width="1.2" transform="rotate(-56.3 9.6 11.1)" /><ellipse cx="9.6" cy="11.1" rx="2.8" ry="1" stroke="white" stroke-width="0.4" opacity="0.5" transform="rotate(-56.3 9.6 11.1)" /></g>
        <g><ellipse cx="7" cy="9.8" rx="3.5" ry="1.5" stroke="url(#chainGradient)" stroke-width="1.2" transform="rotate(33.2 7 9.8)" /><ellipse cx="7" cy="9.8" rx="2.8" ry="1" stroke="white" stroke-width="0.4" opacity="0.5" transform="rotate(33.2 7 9.8)" /></g>
      </g>
      
      <text x="50" y="58" font-family="'Inter', sans-serif" font-size="24" font-weight="900" fill="white" text-anchor="middle" transform="rotate(45 50 58)">A.S</text>
    </g>

    <text x="60" y="100" font-family="'Inter', sans-serif" font-size="22" font-weight="900" fill="url(#textGradient)" text-anchor="middle">AlphaSpace</text>
  </g>
</svg>
